<svg width="98" height="81" viewBox="0 0 98 81" fill="none" xmlns="http://www.w3.org/2000/svg">
<g id="Capa 14">
<path id="Vector" d="M15.17 59.7677C15.9017 57.4766 16.4698 55.4595 17.1745 53.4944C21.2729 42.0693 28.2535 32.6356 37.3652 24.7392C50.2091 13.6003 65.224 6.67301 81.5537 2.42538C85.0163 1.52588 88.5373 0.874955 92.041 0.159221C94.0633 -0.249335 95.3564 0.499235 95.8905 2.24809C96.4076 3.94841 95.5553 5.52539 93.8203 5.91824C89.6531 6.86221 85.4283 7.60642 81.3019 8.71247C68.0584 12.2623 55.7218 17.7879 44.8345 26.2406C33.8133 34.7986 25.6591 45.4133 21.7437 59C21.3799 60.2704 21.0652 61.5507 20.7614 62.8363C20.5794 63.6261 20.4627 64.4256 20.2741 65.4651C20.8047 65.0763 21.147 64.7884 21.5229 64.5542C26.0057 61.7439 30.4776 58.9283 34.9883 56.161C35.9764 55.5529 37.0772 55.518 38.0662 56.2554C39.0882 57.014 39.5347 58.0699 39.3769 59.3259C39.2282 60.4786 38.4419 61.143 37.4466 61.6427C31.1735 64.7871 25.4789 68.7735 20.2129 73.3983C19.5607 73.9736 19.2886 74.5642 19.2975 75.4104C19.3123 77.2494 18.5172 78.0387 16.7165 78.3947C15.754 78.5846 14.7835 78.9482 13.94 79.44C12.554 80.2555 11.6004 80.3313 10.5433 79.4214C9.35949 78.3997 8.77691 76.6734 9.68047 75.5621C10.9666 73.9724 10.6829 72.279 10.5295 70.5834C9.88221 63.4271 8.40772 56.4422 5.99807 49.663C5.81588 49.156 5.60667 48.655 5.39671 48.1106C5.07908 48.257 4.80483 48.4027 4.5191 48.5106C2.49223 49.2882 0.960864 48.2452 0.778008 46.0944C0.53975 43.2337 1.33956 40.8004 3.4051 38.7797C5.09701 37.1234 7.51226 37.4949 8.50872 39.632C11.4864 45.9947 13.6604 52.6314 15.1645 59.7678L15.17 59.7677Z" fill="white"/>
</g>
</svg>
